<svg width="206" height="255" viewBox="0 0 206 255" fill="none" xmlns="http://www.w3.org/2000/svg">
<path fill-rule="evenodd" clip-rule="evenodd" d="M147.273 187.977C110.684 209.102 63.8974 196.565 42.7725 159.976C34.3204 145.337 31.2569 129.065 32.9665 113.457C20.5872 136.451 19.764 164.413 33.2979 187.855C54.5538 224.671 103.175 236.394 141.896 214.038C169.653 198.012 184.788 168.826 183.304 140.02C178.495 159.534 166.052 177.135 147.273 187.977Z" fill="#C4C4C4"/>
<path fill-rule="evenodd" clip-rule="evenodd" d="M154.502 51.8841C163.381 65.2585 168.168 81.5124 167.191 98.7729C164.788 141.231 128.422 173.702 85.9639 171.3C70.201 170.408 55.8146 164.835 44.0782 156.006C57.0391 175.531 78.7192 188.919 103.917 190.345C146.375 192.747 182.741 160.276 185.144 117.818C186.654 91.1224 174.378 66.8353 154.502 51.8841Z" fill="#C4C4C4"/>
<path fill-rule="evenodd" clip-rule="evenodd" d="M101.414 13.5933C113.554 21.4993 123.603 32.9158 129.853 47.1758C146.923 86.1251 129.187 131.538 90.2377 148.609C74.6748 155.43 58.08 156.693 42.6735 153.267C63.6921 166.956 90.9787 170.121 115.668 159.3C154.617 142.229 172.354 96.8161 155.283 57.8668C145.033 34.4803 124.566 18.7416 101.414 13.5933Z" fill="#C4C4C4"/>
</svg>
